# xmcd CD database file
#
# Track frame offsets:
#	150
#	24830
#	51891
#	85984
#	115828
#	133544
#	163984
#
# Disc length: 2535 seconds
#
# Revision: 0
# Processed by: cddbd v1.4PL0 Copyright (c) Steve Scherf et al.
# Submitted via: CDex 1.50Beta7
#
DISCID=5409e507
DTITLE=Clark Terry - Flutin' and fluglin'
DYEAR=1900
DGENRE=Jazz
TTITLE0=La rive gauche
TTITLE1=Nashtye blues
TTITLE2=Chat qui peche
TTITLE3=Blue waltz
TTITLE4=Brother Terry
TTITLE5=Flutin' and fluglin'
TTITLE6=No problem
EXTD=
EXTT0=
EXTT1=
EXTT2=
EXTT3=
EXTT4=
EXTT5=
EXTT6=
PLAYORDER=
